<svg viewBox="0 0 128 128" xmlns="http://www.w3.org/2000/svg"><g clip-rule="evenodd" fill-rule="evenodd"><path fill="none" d="M0 0h128v128H0z"/><path d="M71.4 44.764c2.492.531 4.402 1.478 6.034 3.006 2.1 1.983 3.251 4.383 3.757 7.831.342 2.248.202 3.132-.595 3.865-.746.682-2.125.707-2.96.063-.607-.455-.797-.935-.936-2.236-.164-1.731-.468-2.943-.987-4.067-1.113-2.387-3.074-3.625-6.388-4.029-1.556-.19-2.024-.366-2.53-.96-.924-1.099-.569-2.88.708-3.537.481-.24.683-.265 1.746-.202.659.038 1.633.152 2.151.266zm-2.694-9.537c7.679 1.124 13.624 4.686 17.521 10.471 2.189 3.259 3.555 7.086 4.023 11.191.164 1.503.164 4.244-.013 4.699-.165.429-.696 1.01-1.151 1.25-.493.253-1.543.227-2.125-.076-.974-.493-1.265-1.276-1.265-3.398 0-3.271-.848-6.72-2.315-9.398a19.214 19.214 0 0 0-7.059-7.339c-2.543-1.516-6.3-2.64-9.728-2.918-1.24-.101-1.923-.354-2.391-.897-.721-.821-.797-1.933-.19-2.855.657-1.02 1.669-1.185 4.693-.73zm-29.792-7.793c.443.152 1.126.505 1.518.758 2.403 1.592 9.095 10.143 11.284 14.412 1.252 2.438 1.67 4.244 1.278 5.583-.405 1.44-1.075 2.198-4.074 4.61-1.202.972-2.328 1.97-2.505 2.236-.455.657-.822 1.945-.822 2.855.013 2.109 1.379 5.937 3.175 8.88 1.391 2.286 3.883 5.216 6.35 7.465 2.897 2.653 5.452 4.459 8.337 5.886 3.707 1.844 5.971 2.311 7.628 1.541.417-.19.86-.442.999-.556.126-.114 1.101-1.301 2.163-2.615 2.049-2.577 2.517-2.994 3.922-3.474 1.784-.606 3.605-.442 5.44.493 1.392.72 4.428 2.602 6.388 3.966 2.581 1.806 8.096 6.303 8.843 7.2 1.315 1.617 1.543 3.688.658 5.975-.936 2.412-4.579 6.934-7.122 8.867-2.302 1.743-3.934 2.412-6.085 2.513-1.771.088-2.505-.063-4.769-.998-17.76-7.313-31.941-18.226-43.2-33.22-5.882-7.831-10.361-15.953-13.422-24.378-1.784-4.913-1.872-7.048-.405-9.562.633-1.061 3.327-3.688 5.288-5.153 3.264-2.425 4.769-3.322 5.971-3.575.822-.177 2.252-.038 3.162.291zm28.919-1.364c4.352.543 7.868 1.591 11.727 3.474 3.795 1.857 6.224 3.613 9.437 6.808 3.011 3.019 4.681 5.305 6.452 8.854 2.467 4.951 3.871 10.838 4.111 17.317.089 2.21.025 2.703-.481 3.335-.961 1.225-3.074 1.023-3.795-.354-.228-.455-.291-.846-.367-2.615-.127-2.716-.316-4.471-.696-6.568-1.493-8.223-5.44-14.791-11.74-19.503-5.25-3.941-10.677-5.861-17.786-6.278-2.404-.139-2.821-.227-3.365-.644-1.012-.796-1.063-2.665-.089-3.537.595-.543 1.012-.619 3.074-.556 1.077.039 2.658.166 3.518.267zM64 0c35.346 0 64 28.654 64 64s-28.654 64-64 64S0 99.346 0 64 28.654 0 64 0z" fill="#7F4DA0"/></g></svg>